<mxfile host="app.diagrams.net" agent="Mozilla/5.0 (Windows NT 10.0; Win64; x64) AppleWebKit/537.36 (KHTML, like Gecko) Chrome/131.0.0.0 Safari/537.36" version="26.0.3">
  <diagram name="Page-1" id="zOEEpCLVx3BSE4MT3N1Z">
    <mxGraphModel dx="1129" dy="893" grid="1" gridSize="10" guides="1" tooltips="1" connect="1" arrows="1" fold="1" page="1" pageScale="1" pageWidth="827" pageHeight="1169" math="0" shadow="0">
      <root>
        <mxCell id="0" />
        <mxCell id="1" parent="0" />
        <mxCell id="m88zG1PSdtv8Twhl0nPQ-1" value="" style="shape=umlLifeline;perimeter=lifelinePerimeter;whiteSpace=wrap;html=1;container=1;dropTarget=0;collapsible=0;recursiveResize=0;outlineConnect=0;portConstraint=eastwest;newEdgeStyle={&quot;curved&quot;:0,&quot;rounded&quot;:0};participant=umlActor;" vertex="1" parent="1">
          <mxGeometry x="60" y="180" width="20" height="440" as="geometry" />
        </mxCell>
        <mxCell id="m88zG1PSdtv8Twhl0nPQ-2" value="" style="html=1;points=[[0,0,0,0,5],[0,1,0,0,-5],[1,0,0,0,5],[1,1,0,0,-5]];perimeter=orthogonalPerimeter;outlineConnect=0;targetShapes=umlLifeline;portConstraint=eastwest;newEdgeStyle={&quot;curved&quot;:0,&quot;rounded&quot;:0};" vertex="1" parent="m88zG1PSdtv8Twhl0nPQ-1">
          <mxGeometry x="5" y="50" width="10" height="360" as="geometry" />
        </mxCell>
        <mxCell id="m88zG1PSdtv8Twhl0nPQ-3" value="Moderatore" style="text;html=1;align=center;verticalAlign=middle;whiteSpace=wrap;rounded=0;" vertex="1" parent="1">
          <mxGeometry x="40" y="150" width="60" height="30" as="geometry" />
        </mxCell>
        <mxCell id="m88zG1PSdtv8Twhl0nPQ-4" value="clickOnApprove()" style="html=1;verticalAlign=bottom;endArrow=block;curved=0;rounded=0;exitX=0.8;exitY=0.166;exitDx=0;exitDy=0;exitPerimeter=0;" edge="1" parent="1" target="m88zG1PSdtv8Twhl0nPQ-6">
          <mxGeometry width="80" relative="1" as="geometry">
            <mxPoint x="74" y="289.76" as="sourcePoint" />
            <mxPoint x="230" y="290" as="targetPoint" />
          </mxGeometry>
        </mxCell>
        <mxCell id="m88zG1PSdtv8Twhl0nPQ-5" value=":Moderator_Page_Boundary" style="shape=umlLifeline;perimeter=lifelinePerimeter;whiteSpace=wrap;html=1;container=1;dropTarget=0;collapsible=0;recursiveResize=0;outlineConnect=0;portConstraint=eastwest;newEdgeStyle={&quot;curved&quot;:0,&quot;rounded&quot;:0};" vertex="1" parent="1">
          <mxGeometry x="160" y="180" width="160" height="300" as="geometry" />
        </mxCell>
        <mxCell id="m88zG1PSdtv8Twhl0nPQ-6" value="" style="html=1;points=[[0,0,0,0,5],[0,1,0,0,-5],[1,0,0,0,5],[1,1,0,0,-5]];perimeter=orthogonalPerimeter;outlineConnect=0;targetShapes=umlLifeline;portConstraint=eastwest;newEdgeStyle={&quot;curved&quot;:0,&quot;rounded&quot;:0};" vertex="1" parent="m88zG1PSdtv8Twhl0nPQ-5">
          <mxGeometry x="75" y="85" width="10" height="185" as="geometry" />
        </mxCell>
        <mxCell id="m88zG1PSdtv8Twhl0nPQ-7" value="" style="shape=umlDestroy;whiteSpace=wrap;html=1;strokeWidth=3;targetShapes=umlLifeline;" vertex="1" parent="m88zG1PSdtv8Twhl0nPQ-5">
          <mxGeometry x="65" y="250" width="30" height="30" as="geometry" />
        </mxCell>
        <mxCell id="m88zG1PSdtv8Twhl0nPQ-8" value="approveReview(film, user)" style="html=1;verticalAlign=bottom;endArrow=block;curved=0;rounded=0;" edge="1" parent="1" source="m88zG1PSdtv8Twhl0nPQ-6" target="m88zG1PSdtv8Twhl0nPQ-10">
          <mxGeometry width="80" relative="1" as="geometry">
            <mxPoint x="250" y="310" as="sourcePoint" />
            <mxPoint x="390" y="310" as="targetPoint" />
            <Array as="points">
              <mxPoint x="300" y="300" />
            </Array>
          </mxGeometry>
        </mxCell>
        <mxCell id="m88zG1PSdtv8Twhl0nPQ-9" value=":Moderator_Control" style="shape=umlLifeline;perimeter=lifelinePerimeter;whiteSpace=wrap;html=1;container=1;dropTarget=0;collapsible=0;recursiveResize=0;outlineConnect=0;portConstraint=eastwest;newEdgeStyle={&quot;curved&quot;:0,&quot;rounded&quot;:0};" vertex="1" parent="1">
          <mxGeometry x="340" y="180" width="120" height="300" as="geometry" />
        </mxCell>
        <mxCell id="m88zG1PSdtv8Twhl0nPQ-10" value="" style="html=1;points=[[0,0,0,0,5],[0,1,0,0,-5],[1,0,0,0,5],[1,1,0,0,-5]];perimeter=orthogonalPerimeter;outlineConnect=0;targetShapes=umlLifeline;portConstraint=eastwest;newEdgeStyle={&quot;curved&quot;:0,&quot;rounded&quot;:0};" vertex="1" parent="m88zG1PSdtv8Twhl0nPQ-9">
          <mxGeometry x="55" y="100" width="10" height="180" as="geometry" />
        </mxCell>
        <mxCell id="m88zG1PSdtv8Twhl0nPQ-11" value="rimuoviRecensione(user)" style="html=1;verticalAlign=bottom;endArrow=block;curved=0;rounded=0;entryX=-0.267;entryY=0.238;entryDx=0;entryDy=0;entryPerimeter=0;" edge="1" parent="1" source="m88zG1PSdtv8Twhl0nPQ-10" target="m88zG1PSdtv8Twhl0nPQ-13">
          <mxGeometry width="80" relative="1" as="geometry">
            <mxPoint x="410" y="329.5799999999999" as="sourcePoint" />
            <mxPoint x="560" y="330" as="targetPoint" />
          </mxGeometry>
        </mxCell>
        <mxCell id="m88zG1PSdtv8Twhl0nPQ-12" value="film:Film" style="shape=umlLifeline;perimeter=lifelinePerimeter;whiteSpace=wrap;html=1;container=1;dropTarget=0;collapsible=0;recursiveResize=0;outlineConnect=0;portConstraint=eastwest;newEdgeStyle={&quot;curved&quot;:0,&quot;rounded&quot;:0};" vertex="1" parent="1">
          <mxGeometry x="530" y="180" width="100" height="300" as="geometry" />
        </mxCell>
        <mxCell id="m88zG1PSdtv8Twhl0nPQ-13" value="" style="html=1;points=[[0,0,0,0,5],[0,1,0,0,-5],[1,0,0,0,5],[1,1,0,0,-5]];perimeter=orthogonalPerimeter;outlineConnect=0;targetShapes=umlLifeline;portConstraint=eastwest;newEdgeStyle={&quot;curved&quot;:0,&quot;rounded&quot;:0};" vertex="1" parent="m88zG1PSdtv8Twhl0nPQ-12">
          <mxGeometry x="45" y="130" width="10" height="25" as="geometry" />
        </mxCell>
        <mxCell id="m88zG1PSdtv8Twhl0nPQ-14" value="getAllRecensioniSegnalate()" style="html=1;verticalAlign=bottom;endArrow=block;curved=0;rounded=0;" edge="1" parent="1" target="m88zG1PSdtv8Twhl0nPQ-16">
          <mxGeometry width="80" relative="1" as="geometry">
            <mxPoint x="410" y="360" as="sourcePoint" />
            <mxPoint x="690" y="360" as="targetPoint" />
          </mxGeometry>
        </mxCell>
        <mxCell id="m88zG1PSdtv8Twhl0nPQ-15" value=":Catalogo_Recensioni" style="shape=umlLifeline;perimeter=lifelinePerimeter;whiteSpace=wrap;html=1;container=1;dropTarget=0;collapsible=0;recursiveResize=0;outlineConnect=0;portConstraint=eastwest;newEdgeStyle={&quot;curved&quot;:0,&quot;rounded&quot;:0};" vertex="1" parent="1">
          <mxGeometry x="660" y="180" width="130" height="300" as="geometry" />
        </mxCell>
        <mxCell id="m88zG1PSdtv8Twhl0nPQ-16" value="" style="html=1;points=[[0,0,0,0,5],[0,1,0,0,-5],[1,0,0,0,5],[1,1,0,0,-5]];perimeter=orthogonalPerimeter;outlineConnect=0;targetShapes=umlLifeline;portConstraint=eastwest;newEdgeStyle={&quot;curved&quot;:0,&quot;rounded&quot;:0};" vertex="1" parent="m88zG1PSdtv8Twhl0nPQ-15">
          <mxGeometry x="60" y="150" width="10" height="80" as="geometry" />
        </mxCell>
        <mxCell id="m88zG1PSdtv8Twhl0nPQ-17" value="recensioniSegnalate" style="html=1;verticalAlign=bottom;endArrow=open;dashed=1;endSize=8;curved=0;rounded=0;" edge="1" parent="1" target="m88zG1PSdtv8Twhl0nPQ-10">
          <mxGeometry relative="1" as="geometry">
            <mxPoint x="720" y="390" as="sourcePoint" />
            <mxPoint x="640" y="390" as="targetPoint" />
          </mxGeometry>
        </mxCell>
        <mxCell id="m88zG1PSdtv8Twhl0nPQ-18" value=":Moderator_Page" style="shape=umlLifeline;perimeter=lifelinePerimeter;whiteSpace=wrap;html=1;container=1;dropTarget=0;collapsible=0;recursiveResize=0;outlineConnect=0;portConstraint=eastwest;newEdgeStyle={&quot;curved&quot;:0,&quot;rounded&quot;:0};" vertex="1" parent="1">
          <mxGeometry x="820" y="430" width="100" height="300" as="geometry" />
        </mxCell>
        <mxCell id="m88zG1PSdtv8Twhl0nPQ-19" value="" style="html=1;points=[[0,0,0,0,5],[0,1,0,0,-5],[1,0,0,0,5],[1,1,0,0,-5]];perimeter=orthogonalPerimeter;outlineConnect=0;targetShapes=umlLifeline;portConstraint=eastwest;newEdgeStyle={&quot;curved&quot;:0,&quot;rounded&quot;:0};" vertex="1" parent="m88zG1PSdtv8Twhl0nPQ-18">
          <mxGeometry x="45" y="60" width="10" height="80" as="geometry" />
        </mxCell>
        <mxCell id="m88zG1PSdtv8Twhl0nPQ-20" value="createModeratorPage(recensioniSegnalate)" style="html=1;verticalAlign=bottom;endArrow=block;curved=0;rounded=0;entryX=0;entryY=0.033;entryDx=0;entryDy=0;entryPerimeter=0;" edge="1" parent="1" source="m88zG1PSdtv8Twhl0nPQ-10" target="m88zG1PSdtv8Twhl0nPQ-18">
          <mxGeometry width="80" relative="1" as="geometry">
            <mxPoint x="410" y="450" as="sourcePoint" />
            <mxPoint x="490" y="450" as="targetPoint" />
          </mxGeometry>
        </mxCell>
      </root>
    </mxGraphModel>
  </diagram>
</mxfile>
